<svg xmlns="http://www.w3.org/2000/svg" xmlns:xlink="http://www.w3.org/1999/xlink" viewBox="0 0 120 84.92">
  <defs>
    <style>
      .field-fill {
        fill: rgba(0,0,0,.5);
      }

      .field-gradient {
        fill: url(#orange-blue-gradient);
      }

      .blue {
        fill: url(#blue-gradient);
      }

      .orange {
        fill: url(#orange-gradient);
      }

      .detail {
        fill: none;
        stroke: #fff;
        stroke-miterlimit: 10;
        stroke-width: 0.5px;
      }

      .detail-fill {
        fill: #fff;
      }

      .hide {
        display: none;
      }
    </style>
    <linearGradient id="orange-blue-gradient" x1="112.7" y1="42.46" x2="7.3" y2="42.46" gradientUnits="userSpaceOnUse">
      <stop offset="0" stop-color="#ffc800" id="bright-orange" />
      <stop offset="0.5" stop-color="#ff8000" id="dark-orange" />
      <stop offset="0.5" stop-color="#0080ff" id="dark-blue" />
      <stop offset="1" stop-color="#00c8ff" id="bright-blue" />
    </linearGradient>
    <linearGradient id="blue-gradient" x1="55.55" y1="30.32" x2="67.45" y2="18.41"
      gradientTransform="translate(-19.04 103.96) rotate(-90)" gradientUnits="userSpaceOnUse">
      <stop offset="0" stop-color="#00c8ff" id="bright-blue" />
      <stop offset="1" stop-color="#0080ff" id="dark-blue" />
    </linearGradient>
    <linearGradient id="orange-gradient" x1="55.55" y1="127.76" x2="67.45" y2="139.66"
      gradientTransform="translate(-19.04 103.96) rotate(-90)" gradientUnits="userSpaceOnUse">
      <stop offset="0" stop-color="#ffc800" id="bright-orange" />
      <stop offset="1" stop-color="#ff8000" id="dark-orange" />
    </linearGradient>
  </defs>
  <g id="field">
    <path id="field-fill" class="field-fill"
      d="M8.8,71.9 20.32,83.42 99.68,83.42 111.2,71.9 111.2,13.02 99.68,1.5 20.32,1.5 8.8,13.02 8.8,71.9Z" />
    <path id="field-gradient" class="field-gradient"
      d="M99.68,1.5,111.2,13V71.9L99.68,83.42H20.32L8.8,71.9V13L20.32,1.5H99.68M100.3,0H19.7l-.44.44L7.74,12l-.44.44V72.52l.44.44L19.26,84.48l.44.44h80.6l.44-.44L112.26,73l.44-.44V12.4l-.44-.44L100.74.44,100.3,0Z" />
    <path id="detail-fill" class="detail-fill"
      d="M99.68,1.5,111.2,13V71.9L99.68,83.42H20.32L8.8,71.9V13L20.32,1.5H99.68m.21-.5H20.11L20,1.15,8.45,12.67l-.15.14v59.3l.15.14L20,83.77l.14.15H99.89l.14-.15,11.52-11.52.15-.14V12.81l-.15-.14L100,1.15,99.89,1Z" />
  </g>
  <g id="goal-0">
    <path id="goal-color" class="blue" d="M2.1,51.14 0.25,49.29 0.25,35.63 2.1,33.78 8.55,33.78 8.55,51.14 2.1,51.14Z" />
    <path id="goal-fill" class="detail-fill" d="M8.3,34V50.89H2.21L.5,49.18V35.74L2.21,34H8.3m.5-.5H2l-2,2V49.39l2,2H8.8V33.53Z" />
  </g>
  <g id="goal-1">
    <path id="goal-color" class="orange"
      d="M111.45,51.14 111.45,33.78 117.9,33.78 119.75,35.63 119.75,49.29 117.9,51.14 111.45,51.14Z" />
    <path id="goal-fill" class="detail-fill" d="M117.79,34l1.71,1.71V49.18l-1.71,1.71H111.7V34h6.09m.21-.5h-6.8V51.39H118l2-2V35.53l-2-2Z" />
  </g>
  <path id="goal-1-outer" class="detail"
    d="M111.2,63.42 95.24,63.42 90.55,58.73 90.55,26.19 95.24,21.5 111.2,21.5 111.2,63.42Z" />
  <path id="goal-1-inner" class="detail hide" d="M111.2,30.46a12,12,0,0,0,0,24Z" />
  <path id="goal-0-outer" class="detail"
    d="M8.8,21.5 24.76,21.5 29.45,26.19 29.45,58.73 24.76,63.42 8.8,63.42 8.8,21.5Z" />
  <path id="goal-0-inner" class="detail hide" d="M8.8,54.46a12,12,0,0,0,0-24Z" />
  <line id="center-line" class="detail hide" x1="60" y1="83.42" x2="60" y2="1.5" />
  <path id="center-line-cutoff" class="detail" d="M60,32.46V1.5m0,81.92v-31" />
  <path id="center-circle" class="detail" d="M60,34.46a8,8,0,1,1-8,8A8,8,0,0,1,60,34.46Z" />
  <path id="center-inner" class="detail" d="M60,40.46a2,2,0,1,1-2,2A2,2,0,0,1,60,40.46Z" />
  <path id="center-shape" class="detail hide"
    d="M61.3,34.86c-.41,0-.86,0-1.3,0s-.89,0-1.3,0-.71-1-1.05-1a9,9,0,0,0-6.21,6.21c-.09.34.94.67,1,1s.05.86.05,1.3,0,.89-.05,1.3-1,.71-1,1.05A9,9,0,0,0,57.65,51c.34.09.67-.94,1.05-1S59.56,50,60,50s.89,0,1.3.05.71,1,1.05,1a9,9,0,0,0,6.21-6.21c.09-.34-.94-.67-1-1.05s0-.86,0-1.3,0-.89,0-1.3,1.05-.71,1-1a9,9,0,0,0-6.21-6.21C62,33.81,61.68,34.84,61.3,34.86Z" />
</svg>